PathFileType	4	(X/Y/Z)	C:/Users/beibeiliu/ov580/test_trc/User2\sequence.35_training_dense_left.trc
DataRate	CameraRate	NumFrames	NumMarkers	Units	OrigDataRate	OrigDataStartFrame	OrigNumFrames
120	120	9	19	mm	120	1	289
Frame#	Time	ThumbCMC			ThumbMCP			ThumbIP			ThumbTip			IndexMCP			IndexPIP			IndexTip			MiddleMCP			MiddlePIP			MiddleTip			RingMCP			RingPIP			RingTip			PinkyMCP			PinkyPIP			PinkyTip			BackHand1			BackHand2			BackHand3	
		X0	Y0	Z0	X1	Y1	Z1	X2	Y2	Z2	X3	Y3	Z3	X4	Y4	Z4	X5	Y5	Z5	X6	Y6	Z6	X7	Y7	Z7	X8	Y8	Z8	X9	Y9	Z9	X10	Y10	Z10	X11	Y11	Z11	X12	Y12	Z12	X13	Y13	Z13	X14	Y14	Z14	X15	Y15	Z15	X16	Y16	Z16	X17	Y17	Z17	X18	Y18	Z18	
0	0	-145.415	-75.1989	104.345	-125.519	-86.5513	85.2394	-101.715	-95.3168	60.5661	-86.842	-106.256	40.2328	-163.749	-76.7248	21.688	-156.407	-80.8572	-4.89108	-151.975	-86.824	-37.5658	-190.62	-78.0505	12.8337	-193.517	-84.5695	-18.6817	-197.543	-94.6419	-49.2588	-214.456	-85.2943	18.4296	-219.986	-90.7037	-3.74701	-224.68	-99.5573	-31.5638	-238.079	-93.5901	40.1902	-245.503	-98.5022	20.12	-251.785	-96.8431	-5.15085	-212.725	-67.2214	71.3292	-213.314	-54.8782	107.211	-178.823	-56.3978	85.7537	
1	0.00833333	-147.648	-76.5397	101.618	-125.274	-86.0216	83.583	-107.029	-97.09	59.5349	-87.9754	-107.695	40.5283	-164.688	-77.1486	19.3622	-158.128	-81.1815	-9.85651	-153.95	-88.1202	-39.0474	-190.867	-79.0744	9.55163	-193.309	-84.95	-16.822	-198.561	-95.1611	-49.7914	-219.629	-85.5914	20.3334	-220.058	-91.9106	-4.78252	-225.901	-100.697	-37.1942	-235.52	-94.4814	43.1081	-248.478	-98.5156	14.9763	-255.373	-96.444	-3.3576	-215.747	-68.5953	74.6435	-213.491	-55.0944	103.571	-178.94	-57.9996	83.5409	
2	0.0166667	-147.916	-76.6961	103.303	-127.205	-86.4192	85.9598	-103.041	-97.3965	56.9425	-90.3901	-107.717	44.4216	-159.333	-77.2872	16.1362	-158.422	-81.5514	-7.92525	-150.378	-87.0077	-34.9219	-193.388	-78.632	12.5873	-193.872	-85.8117	-18.181	-195.719	-94.3543	-48.4519	-214.464	-85.0073	21.4695	-221.17	-93.263	-9.24628	-226.817	-101.269	-36.1524	-237.35	-93.6684	41.8658	-248.154	-99.2227	16.9757	-254.202	-99.0645	-4.69935	-216.614	-68.2795	73.6475	-212.982	-56.8775	103.32	-180.726	-57.7998	86.0813	
3	0.025	-144.437	-76.0767	98.6651	-127.257	-86.881	82.8756	-104.655	-97.3932	58.7858	-88.9632	-107.369	46.4053	-161.805	-77.3535	16.6158	-153.562	-80.4916	-10.8661	-155.356	-87.6363	-34.3598	-190.634	-78.4728	13.8608	-193.888	-86.2095	-20.2526	-198.042	-95.1344	-49.0047	-214.055	-84.8796	18.8588	-221.44	-92.445	-7.88073	-223.388	-99.3573	-31.8931	-232.174	-94.1918	42.3389	-243.325	-97.5153	16.2323	-253.903	-96.537	-4.23891	-214.459	-69.7527	70.8827	-216.595	-57.0303	102.146	-179.036	-57.6789	82.952	
4	0.0333333	-148.82	-76.8764	102.757	-125.905	-86.8096	81.5731	-102.119	-96.5497	60.8714	-86.0025	-106.733	45.4301	-159.439	-76.1489	20.6909	-155.599	-79.6316	-5.60596	-150.687	-85.7754	-33.3153	-188.647	-77.7696	8.53336	-191.044	-86.8676	-22.0648	-195.326	-94.1012	-47.3859	-218.454	-86.1666	20.9336	-220.331	-91.9385	-9.05662	-225.744	-101.059	-35.5087	-237.997	-94.8428	41.4305	-241.773	-98.4715	17.6486	-254.009	-96.7354	-4.06436	-215.369	-68.1952	71.645	-210.996	-56.1327	100.853	-179.702	-58.775	83.5437	
5	0.0416667	-148.406	-76.7431	98.9309	-127.362	-85.9357	82.454	-104.697	-96.1891	56.8884	-85.8575	-105.852	44.3831	-159.027	-76.0858	22.157	-158.188	-80.8835	-9.50866	-151.532	-85.9866	-33.0252	-192.779	-78.9032	10.2113	-191.938	-85.3632	-19.0731	-198.407	-94.915	-47.9895	-219.166	-86.1589	21.1527	-223.385	-92.7359	-7.90059	-226.884	-100.347	-31.9713	-235.881	-93.5656	41.6471	-241.768	-98.4393	19.9104	-254.22	-98.8605	-3.25696	-212.251	-67.2642	75.3251	-213.57	-56.5903	103.488	-176.745	-57.8261	85.0915	
6	0.05	-146.084	-75.5323	99.2493	-124.811	-85.3167	81.8595	-106.102	-97.1364	61.2327	-89.0149	-105.863	44.6313	-162.693	-76.5112	16.6526	-155.142	-80.2023	-5.15922	-153.823	-86.1263	-33.5505	-193.845	-78.7318	9.72717	-191.8	-84.7335	-16.7242	-196.598	-93.4559	-50.071	-214.334	-85.0126	22.6063	-221.676	-92.1052	-5.12972	-223.707	-98.9727	-36.3206	-238.278	-93.9655	41.8671	-245.898	-98.2424	15.2576	-254.381	-97.4227	-4.76643	-211.169	-68.8102	76.1445	-215.092	-56.0511	105.348	-180.283	-55.9675	86.2053	
7	0.0583333	-146.867	-74.3458	104.053	-126.178	-85.3474	85.1023	-102.418	-94.6917	58.0834	-85.8449	-104.273	45.6665	-162.048	-74.9954	18.1762	-154.27	-80.043	-9.74452	-154.794	-85.4236	-33.7455	-192.282	-78.251	10.1002	-193.059	-85.0347	-17.3752	-193.258	-94.2042	-52.3721	-214.602	-84.3448	21.3807	-224.161	-92.105	-5.19422	-225.643	-98.9674	-32.2119	-238.689	-92.6253	39.5563	-243.915	-97.6867	18.5174	-254.479	-96.999	-7.74849	-217.055	-68.7295	76.5468	-215.447	-56.543	103.819	-177.925	-54.7937	85.2854	
8	0.0666667	-147.425	-74.721	101.112	-127.002	-84.9765	82.044	-106.871	-94.9006	59.086	-87.5767	-103.84	41.295	-162.617	-73.6555	20.2119	-156.017	-78.3633	-10.9017	-149.471	-84.9778	-37.916	-192.028	-76.293	13.182	-195.934	-84.8143	-21.0575	-195.808	-93.1692	-49.8433	-217.059	-83.7586	19.7624	-223.52	-90.7687	-5.27624	-222.384	-98.5428	-35.6578	-237.936	-92.9168	43.85	-243.391	-97.1594	19.1648	-254.234	-96.4184	-5.82639	-214.901	-69.0025	74.756	-216.634	-56.7267	106.937	-180.272	-56.3846	86.7913	
